<svg width="180" height="126" viewBox="0 0 180 126" fill="none" xmlns="http://www.w3.org/2000/svg">
<rect x="62.1" y="4.50034" width="14.4" height="19.8" rx="7.2" fill="#12A19C" stroke="black" stroke-width="1.8"/>
<rect x="78.3" y="0.9" width="14.4" height="25.2" rx="7.2" fill="#12A19C" stroke="black" stroke-width="1.8"/>
<rect x="94.5" y="0.9" width="14.4" height="25.2" rx="7.2" fill="#12A19C" stroke="black" stroke-width="1.8"/>
<rect x="108.9" y="4.50034" width="14.4" height="25.2" rx="7.2" fill="#12A19C" stroke="black" stroke-width="1.8"/>
<path d="M160.2 49.5002C170.566 49.5002 179.1 58.692 179.1 70.1995C179.1 81.7071 170.566 90.8997 160.2 90.8997C149.834 90.8995 141.3 81.707 141.3 70.1995C141.301 58.6921 149.834 49.5004 160.2 49.5002Z" fill="#1BD7D1" stroke="black" stroke-width="1.8"/>
<path d="M19.7998 49.5002C30.1658 49.5002 38.7 58.692 38.7002 70.1995C38.7002 81.7071 30.1659 90.8997 19.7998 90.8997C9.43382 90.8995 0.900391 81.707 0.900391 70.1995C0.900583 58.6921 9.43394 49.5004 19.7998 49.5002Z" fill="#1BD7D1" stroke="black" stroke-width="1.8"/>
<path d="M90.0002 11.7007C128.448 11.7008 159.3 37.2439 159.3 68.3999C159.3 99.5561 128.448 125.1 90.0002 125.1C51.5522 125.1 20.7004 99.5561 20.7004 68.3999C20.7007 37.2439 51.5524 11.7007 90.0002 11.7007Z" fill="#1BD7D1" stroke="black" stroke-width="1.8"/>
<path d="M55.8 59.4006H126C126 59.4006 118.8 69.3006 110.7 73.8006C102.6 78.3006 90.9 77.4006 90.9 77.4006C90.9 77.4006 80.1 77.4006 71.1 73.8006C62.1 70.2006 55.8 59.4006 55.8 59.4006Z" fill="white" stroke="black" stroke-width="1.8" stroke-linecap="round"/>
<line x1="90.9" y1="60.3001" x2="90.9" y2="76.5001" stroke="black" stroke-width="1.8" stroke-linecap="round"/>
<path d="M107.1 59.4001V74.7001" stroke="black" stroke-width="1.8" stroke-linecap="round"/>
<line x1="74.7" y1="60.3001" x2="74.7" y2="74.7001" stroke="black" stroke-width="1.8" stroke-linecap="round"/>
<path d="M99 51.2995C99 51.2995 101.7 49.4995 104.4 48.5995C107.1 47.6995 109.8 48.5995 109.8 48.5995" stroke="black" stroke-width="1.8"/>
<path d="M84.6 50.4005C84.6 50.4005 82.8 48.6005 79.2 47.7005C75.6 46.8005 72.9 46.8005 72.9 46.8005" stroke="black" stroke-width="1.8"/>
</svg>
