<svg width="234" height="164" viewBox="0 0 234 164" fill="none" xmlns="http://www.w3.org/2000/svg">
<rect x="80.7299" y="5.85018" width="18.72" height="25.74" rx="9.36" fill="#12A19C" stroke="black" stroke-width="2.34"/>
<rect x="101.79" y="1.17" width="18.72" height="32.76" rx="9.36" fill="#12A19C" stroke="black" stroke-width="2.34"/>
<rect x="122.85" y="1.17" width="18.72" height="32.76" rx="9.36" fill="#12A19C" stroke="black" stroke-width="2.34"/>
<rect x="141.57" y="5.85018" width="18.72" height="32.76" rx="9.36" fill="#12A19C" stroke="black" stroke-width="2.34"/>
<path d="M208.26 64.3501C221.736 64.3502 232.83 76.3004 232.83 91.2603C232.83 106.22 221.736 118.17 208.26 118.17C194.784 118.17 183.69 106.22 183.69 91.2603C183.69 76.3004 194.784 64.3501 208.26 64.3501Z" fill="#1BD7D1" stroke="black" stroke-width="2.34"/>
<path d="M25.7402 64.3501C39.216 64.3502 50.3096 76.3004 50.3096 91.2603C50.3095 106.22 39.216 118.17 25.7402 118.17C12.2644 118.17 1.16996 106.22 1.16992 91.2603C1.16992 76.3004 12.2643 64.3501 25.7402 64.3501Z" fill="#1BD7D1" stroke="black" stroke-width="2.34"/>
<path d="M117 15.21C166.982 15.21 207.09 48.4169 207.09 88.9199C207.09 129.423 166.982 162.63 117 162.63C67.0176 162.63 26.91 129.423 26.91 88.9199C26.9101 48.4169 67.0176 15.2101 117 15.21Z" fill="#1BD7D1" stroke="black" stroke-width="2.34"/>
<path d="M72.54 77.2202H163.8C163.8 77.2202 154.44 90.0902 143.91 95.9402C133.38 101.79 118.17 100.62 118.17 100.62C118.17 100.62 104.13 100.62 92.43 95.9402C80.73 91.2602 72.54 77.2202 72.54 77.2202Z" fill="white" stroke="black" stroke-width="2.34" stroke-linecap="round"/>
<line x1="118.17" y1="78.3897" x2="118.17" y2="99.4497" stroke="black" stroke-width="2.34" stroke-linecap="round"/>
<path d="M139.23 77.2197V97.1097" stroke="black" stroke-width="2.34" stroke-linecap="round"/>
<line x1="97.1101" y1="78.3897" x2="97.1101" y2="97.1097" stroke="black" stroke-width="2.34" stroke-linecap="round"/>
<path d="M128.7 66.6892C128.7 66.6892 132.21 64.3492 135.72 63.1792C139.23 62.0092 142.74 63.1792 142.74 63.1792" stroke="black" stroke-width="2.34"/>
<path d="M109.98 65.5203C109.98 65.5203 107.64 63.1803 102.96 62.0103C98.28 60.8403 94.77 60.8403 94.77 60.8403" stroke="black" stroke-width="2.34"/>
</svg>
